<svg width="60" height="25" viewBox="0 0 60 25" fill="none" xmlns="http://www.w3.org/2000/svg">
<path fill-rule="evenodd" clip-rule="evenodd" d="M59.8125 12.8434C59.8125 8.59543 57.7523 5.24353 53.8146 5.24353C49.8603 5.24353 47.4678 8.59543 47.4678 12.8102C47.4678 17.8048 50.2923 20.3271 54.3463 20.3271C56.3234 20.3271 57.8187 19.879 58.9485 19.2485V15.9298C57.8187 16.494 56.5228 16.8424 54.8779 16.8424C53.2663 16.8424 51.8375 16.2782 51.6547 14.3202H59.7792C59.7792 14.1045 59.8125 13.2416 59.8125 12.8434ZM51.6049 11.267C51.6049 9.39192 52.7513 8.61202 53.798 8.61202C54.8115 8.61202 55.8914 9.39192 55.8914 11.267H51.6049Z" fill="#1E2E50"/>
<path fill-rule="evenodd" clip-rule="evenodd" d="M41.0534 5.24353C39.4252 5.24353 38.3785 6.00683 37.797 6.53783L37.581 5.50903H33.9258V24.8571L38.0794 23.9776L38.096 19.2817C38.6942 19.7131 39.5747 20.3271 41.0368 20.3271C44.0108 20.3271 46.719 17.9376 46.719 12.6774C46.7024 7.86531 43.961 5.24353 41.0534 5.24353ZM40.0566 16.6765C39.0763 16.6765 38.4948 16.328 38.096 15.8966L38.0794 9.74038C38.5114 9.25917 39.1095 8.9273 40.0566 8.9273C41.5685 8.9273 42.6152 10.6198 42.6152 12.7936C42.6152 15.0171 41.5851 16.6765 40.0566 16.6765Z" fill="#1E2E50"/>
<path fill-rule="evenodd" clip-rule="evenodd" d="M28.2123 4.26454L32.3826 3.36849V0L28.2123 0.879458V4.26454Z" fill="#1E2E50"/>
<path d="M32.3826 5.52567H28.2123V20.045H32.3826V5.52567Z" fill="#1E2E50"/>
<path fill-rule="evenodd" clip-rule="evenodd" d="M23.7425 6.75357L23.4766 5.52565H19.8879V20.045H24.0415V10.205C25.0218 8.92732 26.6832 9.15963 27.1983 9.34216V5.52565C26.6666 5.32652 24.7227 4.96147 23.7425 6.75357Z" fill="#1E2E50"/>
<path fill-rule="evenodd" clip-rule="evenodd" d="M15.4357 1.92484L11.3817 2.7877L11.3651 16.0791C11.3651 18.535 13.2093 20.3437 15.6683 20.3437C17.0307 20.3437 18.0276 20.0948 18.5758 19.7961V16.4276C18.0442 16.6433 15.4191 17.4066 15.4191 14.9508V9.06006H18.5758V5.52563H15.4191L15.4357 1.92484Z" fill="#1E2E50"/>
<path fill-rule="evenodd" clip-rule="evenodd" d="M4.20349 9.74038C4.20349 9.09323 4.73516 8.84433 5.61573 8.84433C6.87844 8.84433 8.47344 9.22598 9.73615 9.90632V6.00683C8.35714 5.45925 6.99474 5.24353 5.61573 5.24353C2.24297 5.24353 0 7.00245 0 9.9395C0 14.5193 6.31354 13.7892 6.31354 15.7638C6.31354 16.5271 5.64896 16.776 4.71854 16.776C3.33953 16.776 1.57839 16.2119 0.18276 15.4486V19.3978C1.72792 20.0616 3.28969 20.3437 4.71854 20.3437C8.17437 20.3437 10.5503 18.6345 10.5503 15.6643C10.5336 10.7194 4.20349 11.5989 4.20349 9.74038Z" fill="#1E2E50"/>
</svg>
