<svg width="22" height="22" viewBox="0 0 22 22" fill="none" xmlns="http://www.w3.org/2000/svg">
<g clip-path="url(#clip0_22_108)">
<path d="M11 0.876709C5.41792 0.876709 0.876579 5.41805 0.876579 11.0001C0.876579 16.5822 5.41792 21.1236 11 21.1236C16.5821 21.1236 21.1235 16.5822 21.1235 11.0001C21.1235 5.41805 16.5821 0.876709 11 0.876709ZM17.6933 5.54517C18.8976 7.01657 19.6269 8.89068 19.646 10.9316C19.3609 10.8713 16.5021 10.2915 13.6249 10.6533C13.3901 10.0801 13.1685 9.57593 12.8649 8.9546C16.062 7.64929 17.511 5.79176 17.6933 5.54517ZM16.732 4.54523C16.5765 4.76676 15.2749 6.51628 12.2001 7.66876C10.7832 5.0654 9.2127 2.92675 8.9737 2.60671C11.7158 1.94571 14.6055 2.65856 16.732 4.54523ZM7.32378 3.18796C7.55176 3.5006 9.09693 5.64191 10.5297 8.18881C6.48492 9.26292 2.92241 9.24745 2.53568 9.24234C3.09639 6.5591 4.90465 4.32901 7.32378 3.18796ZM2.35305 11.0133C2.35305 10.9249 2.35481 10.8369 2.35746 10.7491C2.73578 10.7569 6.92607 10.8109 11.2443 9.51853C11.4918 10.003 11.7283 10.4948 11.9453 10.986C8.81854 11.8667 5.97765 14.3956 4.576 16.795C3.19493 15.262 2.35305 13.2342 2.35305 11.0133ZM5.69244 17.8349C6.59567 15.9885 9.04697 13.6051 12.5331 12.4158C13.7471 15.5705 14.2491 18.2144 14.3777 18.9731C11.5973 20.1574 8.25403 19.8325 5.69244 17.8349ZM15.8314 18.1815C15.7428 17.6555 15.2825 15.1241 14.1515 12.0162C16.8612 11.5825 19.2418 12.2925 19.5377 12.3859C19.1522 14.7919 17.7712 16.8697 15.8314 18.1815Z" fill="#F6F9FC"/>
</g>
<defs>
<clipPath id="clip0_22_108">
<rect width="20.9" height="20.9" fill="white" transform="translate(0.550003 0.550049)"/>
</clipPath>
</defs>
</svg>
