<svg width="22" height="22" viewBox="0 0 22 22" fill="none" xmlns="http://www.w3.org/2000/svg">
<g clip-path="url(#clip0_22_105)">
<path d="M7.97523 17.0986C7.97523 17.1802 7.88134 17.2455 7.76296 17.2455C7.62825 17.2578 7.53437 17.1924 7.53437 17.0986C7.53437 17.0169 7.62825 16.9516 7.74663 16.9516C7.86909 16.9394 7.97523 17.0047 7.97523 17.0986ZM6.70572 16.9149C6.67714 16.9965 6.75878 17.0904 6.88124 17.1149C6.98738 17.1557 7.10984 17.1149 7.13433 17.0332C7.15882 16.9516 7.08126 16.8577 6.9588 16.821C6.85267 16.7924 6.73429 16.8332 6.70572 16.9149ZM8.50997 16.8455C8.39159 16.874 8.30995 16.9516 8.3222 17.0455C8.33445 17.1271 8.44058 17.1802 8.56304 17.1516C8.68142 17.123 8.76306 17.0455 8.75081 16.9639C8.73857 16.8863 8.62835 16.8332 8.50997 16.8455ZM11.1959 1.20312C5.53417 1.20312 1.20314 5.5015 1.20314 11.1633C1.20314 15.6903 4.05239 19.5641 8.12218 20.9275C8.64468 21.0214 8.82837 20.6989 8.82837 20.4336C8.82837 20.1805 8.81613 18.7844 8.81613 17.9272C8.81613 17.9272 5.9587 18.5395 5.35864 16.7108C5.35864 16.7108 4.89329 15.5229 4.22384 15.2167C4.22384 15.2167 3.28905 14.5759 4.28915 14.5881C4.28915 14.5881 5.30558 14.6697 5.86482 15.6413C6.75878 17.2169 8.25689 16.7638 8.84062 16.4944C8.9345 15.8413 9.19984 15.3882 9.49374 15.1188C7.21189 14.8657 4.90962 14.535 4.90962 10.6081C4.90962 9.48557 5.21986 8.92225 5.87298 8.20381C5.76685 7.93848 5.41988 6.84449 5.97911 5.43211C6.83226 5.16678 8.79572 6.53426 8.79572 6.53426C9.61212 6.30567 10.4898 6.18729 11.3592 6.18729C12.2287 6.18729 13.1063 6.30567 13.9227 6.53426C13.9227 6.53426 15.8862 5.1627 16.7393 5.43211C17.2986 6.84858 16.9516 7.93848 16.8455 8.20381C17.4986 8.92633 17.8986 9.48965 17.8986 10.6081C17.8986 14.5473 15.4943 14.8616 13.2125 15.1188C13.588 15.4413 13.9064 16.0536 13.9064 17.0128C13.9064 18.3885 13.8942 20.0907 13.8942 20.4254C13.8942 20.6907 14.0819 21.0132 14.6004 20.9193C18.6824 19.5641 21.45 15.6903 21.45 11.1633C21.45 5.5015 16.8577 1.20312 11.1959 1.20312ZM5.17087 15.2821C5.1178 15.3229 5.13005 15.4168 5.19945 15.4943C5.26476 15.5596 5.35864 15.5882 5.41171 15.5351C5.46478 15.4943 5.45253 15.4004 5.38314 15.3229C5.31782 15.2576 5.22394 15.229 5.17087 15.2821ZM4.73001 14.9514C4.70144 15.0045 4.74226 15.0698 4.8239 15.1106C4.88921 15.1514 4.97085 15.1392 4.99943 15.082C5.028 15.029 4.98718 14.9637 4.90554 14.9228C4.8239 14.8983 4.75859 14.9106 4.73001 14.9514ZM6.05259 16.4046C5.98728 16.4577 6.01177 16.5801 6.10566 16.6577C6.19954 16.7516 6.31792 16.7638 6.37099 16.6985C6.42405 16.6455 6.39956 16.523 6.31792 16.4454C6.22812 16.3515 6.10566 16.3393 6.05259 16.4046ZM5.58724 15.8046C5.52193 15.8454 5.52193 15.9515 5.58724 16.0454C5.65255 16.1393 5.76277 16.1801 5.81583 16.1393C5.88114 16.0862 5.88114 15.9801 5.81583 15.8862C5.75868 15.7923 5.65255 15.7515 5.58724 15.8046Z" fill="#F6F9FC"/>
</g>
<defs>
<clipPath id="clip0_22_105">
<rect width="20.9" height="20.9" fill="white" transform="translate(0.549999 0.550049)"/>
</clipPath>
</defs>
</svg>
